<svg xmlns="http://www.w3.org/2000/svg" viewBox="0 0 1280 760" role="img" aria-labelledby="title desc">
  <title id="title">PAM-OS memory architecture</title>
  <desc id="desc">A diagram showing clients calling PAM-OS through its REST API, then flowing through adaptive policy, provider pipeline, SQLite storage, and prompt-ready context output.</desc>
  <defs>
    <linearGradient id="bg" x1="0" x2="1" y1="0" y2="1">
      <stop offset="0" stop-color="#f8fafc" />
      <stop offset="1" stop-color="#eef6f3" />
    </linearGradient>
    <filter id="softShadow" x="-20%" y="-20%" width="140%" height="150%">
      <feDropShadow dx="0" dy="10" stdDeviation="10" flood-color="#16324a" flood-opacity="0.12" />
    </filter>
    <marker id="arrowBlue" markerHeight="9" markerWidth="11" orient="auto" refX="10" refY="4.5">
      <path d="M0,0 L11,4.5 L0,9 Z" fill="#2563eb" />
    </marker>
    <marker id="arrowGreen" markerHeight="9" markerWidth="11" orient="auto" refX="10" refY="4.5">
      <path d="M0,0 L11,4.5 L0,9 Z" fill="#047857" />
    </marker>
    <marker id="arrowAmber" markerHeight="9" markerWidth="11" orient="auto" refX="10" refY="4.5">
      <path d="M0,0 L11,4.5 L0,9 Z" fill="#b45309" />
    </marker>
    <marker id="arrowSlate" markerHeight="9" markerWidth="11" orient="auto" refX="10" refY="4.5">
      <path d="M0,0 L11,4.5 L0,9 Z" fill="#475569" />
    </marker>
    <style>
      .canvas { fill: url(#bg); }
      .lane {
        fill: rgba(255, 255, 255, 0.82);
        stroke: #d8e2ea;
        stroke-width: 1.2;
      }
      .lane-title {
        fill: #334155;
        font-family: Inter, "Segoe UI", "Microsoft YaHei", sans-serif;
        font-size: 13px;
        font-weight: 700;
        letter-spacing: 0;
      }
      .title {
        fill: #0f172a;
        font-family: Inter, "Segoe UI", "Microsoft YaHei", sans-serif;
        font-size: 30px;
        font-weight: 780;
        letter-spacing: 0;
      }
      .subtitle {
        fill: #526173;
        font-family: Inter, "Segoe UI", "Microsoft YaHei", sans-serif;
        font-size: 14px;
        letter-spacing: 0;
      }
      .node {
        filter: url(#softShadow);
        stroke-width: 1.4;
      }
      .client { fill: #ffffff; stroke: #94a3b8; }
      .adapter { fill: #eaf2ff; stroke: #5283d8; }
      .runtime { fill: #f8fbff; stroke: #6b8fbf; }
      .policy { fill: #fff7ed; stroke: #d08a2d; }
      .provider { fill: #ecfdf5; stroke: #2f9f77; }
      .store { fill: #f8fafc; stroke: #8da2b7; }
      .output { fill: #fdf2f8; stroke: #be6aa3; }
      .node-title {
        fill: #111827;
        font-family: Inter, "Segoe UI", "Microsoft YaHei", sans-serif;
        font-size: 15px;
        font-weight: 760;
        letter-spacing: 0;
      }
      .node-sub {
        fill: #536476;
        font-family: Inter, "Segoe UI", "Microsoft YaHei", sans-serif;
        font-size: 11.5px;
        letter-spacing: 0;
      }
      .chip {
        fill: rgba(255, 255, 255, 0.72);
        stroke-width: 1;
      }
      .chip-text {
        fill: #3f4f62;
        font-family: Inter, "Segoe UI", "Microsoft YaHei", sans-serif;
        font-size: 10.5px;
        font-weight: 650;
        letter-spacing: 0;
      }
      .arrow { fill: none; stroke-width: 2; stroke-linecap: round; stroke-linejoin: round; }
      .arrow-blue { stroke: #2563eb; marker-end: url(#arrowBlue); }
      .arrow-green { stroke: #047857; marker-end: url(#arrowGreen); }
      .arrow-amber { stroke: #b45309; marker-end: url(#arrowAmber); }
      .arrow-slate { stroke: #475569; marker-end: url(#arrowSlate); }
      .arrow-muted { stroke: #94a3b8; stroke-dasharray: 7 6; marker-end: url(#arrowSlate); }
      .label {
        fill: #334155;
        font-family: Inter, "Segoe UI", "Microsoft YaHei", sans-serif;
        font-size: 11px;
        font-weight: 650;
        letter-spacing: 0;
      }
    </style>
  </defs>

  <rect class="canvas" x="0" y="0" width="1280" height="760" />

  <text class="title" x="54" y="64">PAM-OS Memory Architecture</text>
  <text class="subtitle" x="56" y="91">Local-first memory runtime with adaptive policy, SQLite storage, and a versioned REST boundary.</text>

  <rect class="lane" x="42" y="126" width="192" height="548" rx="14" />
  <text class="lane-title" x="64" y="156">Clients</text>

  <rect class="lane" x="274" y="126" width="190" height="548" rx="14" />
  <text class="lane-title" x="296" y="156">REST Boundary</text>

  <rect class="lane" x="504" y="126" width="196" height="548" rx="14" />
  <text class="lane-title" x="526" y="156">Runtime</text>

  <rect class="lane" x="740" y="126" width="212" height="548" rx="14" />
  <text class="lane-title" x="762" y="156">Policy + Providers</text>

  <rect class="lane" x="992" y="126" width="236" height="548" rx="14" />
  <text class="lane-title" x="1014" y="156">SQLite MemoryStore</text>

  <rect class="node client" x="68" y="190" width="140" height="66" rx="10" />
  <text class="node-title" x="94" y="218">AI Client</text>
  <text class="node-sub" x="88" y="238">Codex / Claude</text>

  <rect class="node client" x="68" y="308" width="140" height="66" rx="10" />
  <text class="node-title" x="96" y="336">Skill</text>
  <text class="node-sub" x="86" y="356">read/write policy</text>

  <rect class="node client" x="68" y="520" width="140" height="66" rx="10" />
  <text class="node-title" x="92" y="548">User Task</text>
  <text class="node-sub" x="84" y="568">before / after answer</text>

  <rect class="node adapter" x="302" y="190" width="134" height="72" rx="10" />
  <text class="node-title" x="326" y="218">Agent Skill</text>
  <text class="node-sub" x="318" y="238">request policy</text>

  <rect class="node adapter" x="302" y="318" width="134" height="72" rx="10" />
  <text class="node-title" x="330" y="346">REST API</text>
  <text class="node-sub" x="332" y="366">HTTP /v1</text>

  <rect class="node adapter" x="302" y="446" width="134" height="72" rx="10" />
  <text class="node-title" x="320" y="474">Client Config</text>
  <text class="node-sub" x="325" y="494">URL + auth</text>

  <rect class="node runtime" x="532" y="196" width="140" height="82" rx="10" />
  <text class="node-title" x="548" y="225">Runtime API</text>
  <text class="node-sub" x="552" y="246">prepare / capture</text>
  <text class="node-sub" x="552" y="263">search / profile</text>

  <rect class="node runtime" x="532" y="336" width="140" height="82" rx="10" />
  <text class="node-title" x="552" y="365">Orchestrator</text>
  <text class="node-sub" x="556" y="386">budgets + flow</text>
  <text class="node-sub" x="556" y="403">context compiler</text>

  <rect class="node policy" x="768" y="178" width="156" height="92" rx="10" />
  <text class="node-title" x="786" y="208">Adaptive Policy</text>
  <text class="node-sub" x="790" y="230">policy_signals first</text>
  <text class="node-sub" x="790" y="248">rule fallback</text>

  <rect class="node provider" x="768" y="322" width="156" height="142" rx="10" />
  <text class="node-title" x="790" y="352">Provider Pipeline</text>
  <rect class="chip provider" x="788" y="371" width="116" height="24" rx="6" />
  <text class="chip-text" x="809" y="387">extract</text>
  <rect class="chip provider" x="788" y="401" width="116" height="24" rx="6" />
  <text class="chip-text" x="807" y="417">retrieve</text>
  <rect class="chip provider" x="788" y="431" width="116" height="24" rx="6" />
  <text class="chip-text" x="806" y="447">rerank</text>

  <rect class="node provider" x="768" y="526" width="156" height="82" rx="10" />
  <text class="node-title" x="795" y="555">Consolidate</text>
  <text class="node-sub" x="792" y="576">behavior evidence</text>
  <text class="node-sub" x="792" y="593">profile traits</text>

  <rect class="node store" x="1026" y="176" width="166" height="118" rx="10" />
  <text class="node-title" x="1046" y="207">Base Records</text>
  <text class="node-sub" x="1051" y="230">events</text>
  <text class="node-sub" x="1051" y="248">memories</text>
  <text class="node-sub" x="1051" y="266">behavior_events</text>
  <text class="node-sub" x="1051" y="284">memory_links</text>

  <rect class="node store" x="1026" y="340" width="166" height="118" rx="10" />
  <text class="node-title" x="1036" y="371">Derived Layers</text>
  <text class="node-sub" x="1051" y="394">profile_evidence</text>
  <text class="node-sub" x="1051" y="412">profile_traits</text>
  <text class="node-sub" x="1051" y="430">policy_signals</text>
  <text class="node-sub" x="1051" y="448">context_packages</text>

  <rect class="node output" x="1026" y="526" width="166" height="82" rx="10" />
  <text class="node-title" x="1048" y="555">Context Package</text>
  <text class="node-sub" x="1050" y="576">prompt-ready</text>
  <text class="node-sub" x="1050" y="593">stored history</text>

  <path class="arrow arrow-blue" d="M208 223 H302" />
  <text class="label" x="234" y="213">tool call</text>
  <path class="arrow arrow-muted" d="M208 341 H302" />
  <path class="arrow arrow-muted" d="M208 553 C246 553 260 482 302 482" />

  <path class="arrow arrow-blue" d="M436 226 H532" />
  <path class="arrow arrow-slate" d="M436 354 C480 354 488 237 532 237" />
  <path class="arrow arrow-slate" d="M436 482 C486 482 486 252 532 252" />

  <path class="arrow arrow-blue" d="M602 278 V336" />
  <text class="label" x="615" y="312">dispatch</text>

  <path class="arrow arrow-amber" d="M672 228 H768" />
  <text class="label" x="692" y="217">read/capture?</text>
  <path class="arrow arrow-green" d="M672 377 H768" />
  <text class="label" x="700" y="367">execute</text>
  <path class="arrow arrow-green" d="M846 464 V526" />
  <text class="label" x="858" y="501">promote</text>

  <path class="arrow arrow-slate" d="M924 224 H1026" />
  <text class="label" x="946" y="213">read signals</text>
  <path class="arrow arrow-green" d="M924 388 H1026" />
  <text class="label" x="947" y="378">read/write base</text>
  <path class="arrow arrow-green" d="M1109 294 V340" />
  <text class="label" x="1121" y="322">derive</text>
  <path class="arrow arrow-green" d="M924 567 H1026" />
  <text class="label" x="948" y="556">write layers</text>

  <path class="arrow arrow-blue" d="M1109 526 C1109 486 984 486 924 410" />
  <text class="label" x="1004" y="492">retrieval context</text>
  <path class="arrow arrow-blue" d="M1192 567 C1230 567 1230 706 602 706 C290 706 206 592 138 586" />
  <text class="label" x="586" y="724">answer with memory context</text>

  <path class="arrow arrow-green" d="M138 520 C144 468 262 428 302 396" />
  <text class="label" x="151" y="478">fallback</text>
</svg>
